<svg xmlns="http://www.w3.org/2000/svg" viewBox="0 0 186.9 186.9"><style>path{fill:#383a3b}.a{fill:#ffb748}</style><path d="M140 98.2c0 .2-.2.6-.5.8a77 77 0 0 1-16 8.2.8.8 0 0 1-.7-.6 12.4 12.4 0 0 0-4-6.9l-14-12a.8.8 0 0 1-.1-1 .8.8 0 0 1 .9-.3l33.8 11.2c.3 0 .4.3.5.6m-19.2-55c0-3.2-.6-6.3-2-9.5a.8.8 0 0 0-1-.4l-5.2 2.8a.8.8 0 0 0-.3 1 17 17 0 1 1-31.6 0c.2-.4 0-.8-.4-1l-5-2.7a.8.8 0 0 0-1.1.3 24.3 24.3 0 1 0 46.5 9.6Zm0 0" class="a"/><path d="m85 36 11 5.8a.8.8 0 0 0 .7 0l11.1-5.8a.8.8 0 0 0 .2-1.2 14.5 14.5 0 0 0-23.4 0A.8.8 0 0 0 85 36Zm9.7 49.9a.8.8 0 0 0-.8 0L82 96a.8.8 0 0 0-.3.6v13.7c0 .4.3.8.6.8 4 .7 8 1 12 1.2a.8.8 0 0 0 .7-.8v-25a.8.8 0 0 0-.4-.7Zm4.1 0a.8.8 0 0 0-1.3.7v24.8c0 .5.4.8.8.8 4-.1 8-.5 12-1.3.3 0 .6-.4.6-.8V96.6a.8.8 0 0 0-.3-.6L98.9 85.9Zm-16.3-5.5a.8.8 0 0 0 1-.7.8.8 0 0 0-.6-1L24.6 59.2a.8.8 0 0 0-1 1A76.6 76.6 0 0 0 32.4 78c.2.1.4.3.7.3Zm-8.3 19.3 13.8-12a.8.8 0 0 0 0-1 .8.8 0 0 0-.8-.3L53.5 97.6a.8.8 0 0 0-.3 1.3 76.8 76.8 0 0 0 16 8.3.8.8 0 0 0 .8-.6 13 13 0 0 1 4.1-6.9Zm4.6 13a77.3 77.3 0 0 1-5.9-1.7.8.8 0 0 0-.8.8v42.9c0 .3.2.6.4.7l5.7 3.3a.8.8 0 0 0 1.2-.7v-44.6a.8.8 0 0 0-.6-.8M168.5 59a.6.6 0 0 0-.2 0l-58.4 19.8a.8.8 0 0 0 .3 1.6l49.5-2.1c.3 0 .5-.2.7-.3a73.2 73.2 0 0 0 8.8-18 .8.8 0 0 0-.8-1ZM120 111a77.3 77.3 0 0 1-5.9 1.6.8.8 0 0 0-.6.8V158c0 .5.4.8.8.8a.8.8 0 0 0 .4-.1l5.7-3.3c.2-.2.4-.4.4-.7v-42.8a.8.8 0 0 0-.8-.8Zm0 0" class="a"/><path d="M83.3 38a.8.8 0 0 0-.8.5A14.5 14.5 0 0 0 96.3 58 14.6 14.6 0 0 0 110 38.5a.8.8 0 0 0-1-.4l-12.7 6.7L83.7 38a.7.7 0 0 0-.4-.1m-7.1-6.7 5.1 2.8a.8.8 0 0 0 1-.3 17 17 0 0 1 28 0 .8.8 0 0 0 1 .3l5.1-2.7a.8.8 0 0 0 .3-1.2 24.2 24.2 0 0 0-40.8 0 .8.8 0 0 0 .3 1.1Zm2.7 68.1a.8.8 0 0 0-.8 0l-2.5 2.1a10.3 10.3 0 0 0-3.4 6.2c0 .4.1.8.5.9l5.9 1.6a.8.8 0 0 0 .8-.8V100a.8.8 0 0 0-.5-.7Zm.5-24.4a.8.8 0 0 0 .7-.9.8.8 0 0 0-.3-.5L20.8 38a.8.8 0 0 0-1.2.8 75.4 75.4 0 0 0 2.6 16.4c0 .2.2.4.4.5L79.2 75h.2Zm6.7 8.5a.8.8 0 0 0-.7-.7l-49.4-2a.8.8 0 0 0-.6 1.3 77.5 77.5 0 0 0 14.3 14.1h.3l35.7-11.9c.4-.1.6-.4.5-.8Zm8.4 31.1c-4 0-7.9-.5-11.8-1.2a.8.8 0 0 0-.8.8v46.1c0 .3.2.6.4.7l11.8 6.8a.8.8 0 0 0 1.1-.2.8.8 0 0 0 .1-.6v-51.6c0-.5-.3-.8-.8-.8m15.8-1.2h-.2a79.6 79.6 0 0 1-11.6 1.2.8.8 0 0 0-.8.8V167a.8.8 0 0 0 1.2.7l11.8-6.8c.2 0 .4-.4.4-.6v-46.2a.8.8 0 0 0-.8-.8m4-3.2h.1l5.7-1.6c.4-.2.6-.6.5-1-.4-2.4-1.6-4.5-3.4-6.1l-2.4-2.1a.8.8 0 0 0-1.3.6v9.4c0 .4.3.8.8.8m42.6-29.4-49.4 2a.8.8 0 0 0-1 .7.8.8 0 0 0 .8 1L142.9 96a.8.8 0 0 0 .8 0 79.4 79.4 0 0 0 13.8-14 .8.8 0 0 0-.1-1.1.8.8 0 0 0-.5-.2m16-42.5a.8.8 0 0 0-.8 0l-59 35.3a.8.8 0 0 0-.2 1c.2.4.6.5.9.4L170.2 56c.3 0 .5-.3.6-.6a76.8 76.8 0 0 0 2.5-16.4.8.8 0 0 0-.4-.7Zm0 0"/></svg>