<svg xmlns="http://www.w3.org/2000/svg" viewBox="0 0 1383.1 204.3"><defs><style>.a{fill:none;stroke:#666;stroke-miterlimit:10;}.b{fill:#424242;}.c{fill:#ed8665;}.d{fill:#eb8765;}</style></defs><line class="a" x1="0.8" y1="71" x2="1383.6" y2="71"/><path class="b" d="M1281.2,70.9c-2.1,1.3-20.1,11.2-33.6,22.9-41.5,35.8-9.4,81.6,10.6,93.2,14.3,7.2,24.5,3.5,28.8,2.4-8.4-6.7-19-23-14-41a17.3,17.3,0,0,0,4,5c-1.1-14.1,2.3-23,5-28,5.2-9.6,8.2-9.7,7,2a55.9,55.9,0,0,1,8-19c4.8-7,12.9-15.6,7-5,9.7-8.4,19.6-28.8,13-47-4.2-13-14.2-22-31-24a8.8,8.8,0,0,1,3.3-.8,110.9,110.9,0,0,0-23.7-1.2,3.1,3.1,0,0,1,1.5-1.1,51.7,51.7,0,0,0-20.3,5.8,21.9,21.9,0,0,1-2.5,7.1,6.5,6.5,0,0,1,2.3-1.8,7.1,7.1,0,0,1,3.8-.8c-2.7,2.6-6.3,9.9-6.7,13.6a5.5,5.5,0,0,0,2.8-.9c-.9,3.4-5.2,9.9-9.1,12.6h1a20,20,0,0,1-10.3,5.9,9,9,0,0,0-3.5,7.8c0,1.5.2,6.9,3.3,8.2h.4l.6.2h1.6c1.3-.4,1.3-2.6,1.8-3.9a9.3,9.3,0,0,0,.5-1h-.2l-.4.4a7.4,7.4,0,0,1,1.2-2.9h-.1l-.3.2a5,5,0,0,1,2.8-4.2h-.7a2.9,2.9,0,0,1,1.5-.9,2.8,2.8,0,0,0-1.3.1,9.3,9.3,0,0,1,5.1-1.3l-1.7-.4a34.7,34.7,0,0,1,4.9-.4,38.5,38.5,0,0,0,12.9-1.9h0l.8-.3-.4.3-.5.3.9-.3h0l2.1-.5h.4l-.3.4.8-.5h1.8l-.9,1a19.6,19.6,0,0,1,2.9-.5h.1a9.6,9.6,0,0,1,2.4,0h.1c2.6.4,6.8,1.1,9.9.4Z"/><path class="c" d="M1249.1,12.7c3.3-5.4,5-6.2,8.8-8.1-4.9.5-13.5,3.8-17.5,6.7.2-.7.5-1.4.7-2.1-6.5,2.8-15.1,9.3-19.2,13.9a3.9,3.9,0,0,1,.6-3.1c-2.4.9-6.3,5-7.1,7.1l-.3.6-.7,1.1a4.4,4.4,0,0,0-.6-1.6l-.3,1.4a6.3,6.3,0,0,0-3.2-1.9,1.9,1.9,0,0,1,.5,1.4,2.4,2.4,0,0,1-.3.7,22.8,22.8,0,0,1-6.8-6.3,2.7,2.7,0,0,1,.3,1.2,35.1,35.1,0,0,0-9.2-4.3l1.1,1.2a27.7,27.7,0,0,0-12.5-1.1,5.2,5.2,0,0,1,1.1,1,15.4,15.4,0,0,0-6,.9c-3.4,1.4-6.3,4.4-10,4.4l.9.3a18.1,18.1,0,0,0-6.5,5.7l1.5-.8a16.7,16.7,0,0,1,2.6-.6,20.9,20.9,0,0,1,10.8,2.1,17.7,17.7,0,0,1,5.6,5,5.2,5.2,0,0,0-2.8-.2c1.5,1.1,5.8,6.7,5.2,7.1s-.5-.4-1.5-.8a6.8,6.8,0,0,0-2.5-.5A21.4,21.4,0,0,1,1184,48c1.2,3.4.2,4.8-3.1,3.1a46.7,46.7,0,0,0,4.9,6c2,1.8,3.2,3.9,1,5.9,4,3.4,7.2,6.2,11.5,7.8h.1a23,23,0,0,0,3.6,1l-1.2.2h-1.2c4.9,2.4,13,2.3,18.1-.9a29,29,0,0,0,9.8-.1,20.3,20.3,0,0,0,10.9-6.1h-1c3.9-2.7,8.2-9.1,9.1-12.6a5.5,5.5,0,0,1-2.8.9c.4-3.7,4-11,6.7-13.6a7.1,7.1,0,0,0-3.8.8,6.5,6.5,0,0,0-2.3,1.8,21.9,21.9,0,0,0,2.5-7.1,17.8,17.8,0,0,0,.2-3.1h-2.5a19.1,19.1,0,0,0,4.4-5.4C1243.1,24.3,1247.8,14.9,1249.1,12.7Z"/><path class="b" d="M1248.6,9.9a29.7,29.7,0,0,0-3.1,3c.3-.7.5-1.5.8-2.2-5.6,3.9-11.7,13.1-14.7,17.9a16.4,16.4,0,0,1-1.4,2.2h0a16.3,16.3,0,0,1-1.7,2c-.8.8-1.9,1.6-2.9.7a2.7,2.7,0,0,1-.8.7c.1-1.3,1.3-2.5,2-3.5a16.3,16.3,0,0,0-5.2,4.2,8,8,0,0,1-.3-1.5,9.1,9.1,0,0,0-.9,1.7,3.9,3.9,0,0,0-1-.8,3.8,3.8,0,0,1,0,1.5,4.3,4.3,0,0,0,.2-1.1,2.8,2.8,0,0,1,.8,1.1l.6-1.1a6.1,6.1,0,0,0,.3,1.3,19.9,19.9,0,0,1,3-2.8,7.8,7.8,0,0,0-.3,2.2,4.2,4.2,0,0,0,1.7-1.1c3,1.4,5-2.1,7.4-4.3s3.2-1.5,4.9-3.7l.3-.3a6.6,6.6,0,0,0-.6,2,14.7,14.7,0,0,1,4.9-2.3,3.3,3.3,0,0,0-1.6,2.5,10,10,0,0,0,5.1-2.6,2.7,2.7,0,0,1-.5,1.3,5.4,5.4,0,0,1-.6,1.1,5.5,5.5,0,0,0,3.9-1.6,14.8,14.8,0,0,0,1.7-7.6c-3.5,1.3-.2-5.2,1.4-7.8a27,27,0,0,1,5.9-6.5A31.1,31.1,0,0,0,1248.6,9.9Zm-22.9,24.5h0Z"/><path class="d" d="M1283.1,68.5a9.5,9.5,0,0,0-2,1.4l.8-.2a3.3,3.3,0,0,1,1.4,0,213.3,213.3,0,0,0-35.6,25.9l5.5-2.3c-8,7.2-14.8,17.5-18.9,29.7a23.3,23.3,0,0,1,6.2-3.4c-6,11.1-6.8,26.8-2.6,37.9a9.4,9.4,0,0,1,.6-3.6c5.5,21.6,22.1,42.3,48.5,35.5-16.2,7.6-39.1,6.7-55.1-3.2a9.5,9.5,0,0,0,3.1,4.2c-21.7-8.5-23.8-37.9-23.1-45.9a14.9,14.9,0,0,0-2.9,6.9c-3.8-30.7,22.5-55.9,34.3-63.6l-1.4.2a11,11,0,0,0-3.2,1c12.7-10.1,24.5-11.3,37.9-17.7l3.4-1.9,2.7-1.6h-.5a39,39,0,0,0,4.8-1.3,26.2,26.2,0,0,0,11-8c-2.4,3.2-7.7,7.8-11,8.5A19.6,19.6,0,0,0,1283.1,68.5Z"/><path class="b" d="M1198.4,39.5a3.9,3.9,0,0,1-1.1-.6v.7a18.9,18.9,0,0,1-4-.8l.5,1.3a8.9,8.9,0,0,0-3.5-1.4,2.9,2.9,0,0,0,.2.9,5.3,5.3,0,0,1-4.1-2.3c-.5.9-1.6.8-2.4.6a5.2,5.2,0,0,0-2.1-.7,13,13,0,0,0-7.2-3.3h-2.5c.2-.1.3-.4.4-.7a12.1,12.1,0,0,0-4.2-.5c.8-2.9-4-1.3-6.1-.4l.6-.4.3-.2h0l2.2-1.2a16.9,16.9,0,0,1,6.1-1.4.5.5,0,0,1,.6.1.3.3,0,0,1,0,.5,16,16,0,0,1,5.4.7l-.7.2a16.5,16.5,0,0,1,6.7,3.1,21.2,21.2,0,0,1,2.6,2.6v-.4a5.7,5.7,0,0,0,3.2,2.7,2.9,2.9,0,0,1-.2-.9h.6a7.6,7.6,0,0,1,2.1.3c-.1-.1-.2-.1-.2-.2l-2.4-3.3,3.1,2.6c1.1,1,2.6,1.3,4.2,1.7a12.7,12.7,0,0,0-.6-1.8,9.8,9.8,0,0,0,4.6,2.9A7.8,7.8,0,0,1,1198.4,39.5Z"/><path class="c" d="M1262.4,61.6a17,17,0,0,1-5.1,9A11,11,0,0,0,1262.4,61.6Z"/><path class="c" d="M1265.4,51.1a21.1,21.1,0,0,0-1.9-2.3,15.6,15.6,0,0,1,3.2,9.3l-1.2-1.4a14.2,14.2,0,0,1-5.2,13.6,13.7,13.7,0,0,0,2.8-2.1,13.2,13.2,0,0,0,3.5-8.4c.1,0,.8,2.7.9,2.8C1268,58.6,1267.7,54.5,1265.4,51.1Z"/><path class="c" d="M1273.6,36.6l-1.8-.8a12.3,12.3,0,0,0-3.9-.8l1.9-.8c-3.1-.2-6.3-.1-9.1,1.3a31.2,31.2,0,0,1,5.2-.4l-1,1.1A23.2,23.2,0,0,1,1273.6,36.6Z"/><path class="c" d="M1300,81.4l-2.9,2.9a5.9,5.9,0,0,1-.2-1.4,35.1,35.1,0,0,0-13.2,10l-.2-1.3c-5.9,4.6-10.6,11.2-12.2,18.5a42,42,0,0,1,10.8-14.9l.4,2.7a40.1,40.1,0,0,1,13.2-12.7l.4,2.2a76.5,76.5,0,0,0,7.8-10.2Z"/><path class="c" d="M1249.3,142.4a47.8,47.8,0,0,1,.2-13.1l-1.8.6a12.8,12.8,0,0,1,1.4-3.7,10.8,10.8,0,0,0-3,5.3l1.6-.3c-1.7,7.8-.3,16.5,4.5,22.9A52.7,52.7,0,0,1,1249.3,142.4Z"/><path class="b" d="M1217.7,70.9c-.1-.7.4-4.2-1.3-6.9-2.7-4.4-9.7-4.7-9.7-5a25,25,0,0,1,4.8.8,40.4,40.4,0,0,1,4.9,1.6,1.3,1.3,0,0,0,1.2-.1l4.6-2.7s3.1-1.9,3.2-1.7-6.5,3-7.1,7.3a21.6,21.6,0,0,0-.3,3.2c-.1,1.9-.2,3.1-.2,3.5"/><path class="b" d="M1230.2,50.4h-.3a3.1,3.1,0,0,1,1-1l1.4-.9h-.3l.9-.7.7-.8a6.6,6.6,0,0,1,1.9-1.4,17.9,17.9,0,0,0-6.1,3.5,29,29,0,0,0-3.9,5.3l2.4-2Z"/><path class="b" d="M1203.8,52.9a17.8,17.8,0,0,0-5.1-2.3l-4.2-.9,5.5,2.2h-.5c2.6,1,4.7,3.2,7.5,4.1A12.8,12.8,0,0,0,1203.8,52.9Z"/><path class="c" d="M1234.9,25.8v.5a25.1,25.1,0,0,1,2.6-3.1c-1.2,1.1-1.3,2.7-2.6,3.7h.3a13,13,0,0,1-2.2,1.9A13.7,13.7,0,0,1,1234.9,25.8Z"/><path class="d" d="M1230,86.9a2.1,2.1,0,0,1-.9-1.5,3.7,3.7,0,0,1-.1-1.8h.1c.1-.2,0-.1,0-.1h0v-.2c0,.1,0,.2-.1.2s.1.1,0,.2-.3,0-.2-.2h.2v.2a10.9,10.9,0,0,0,.1,1.8A3,3,0,0,0,1230,86.9Z"/><path class="d" d="M1227,83.2a11.6,11.6,0,0,0,.4,1.8h0v.2a8.8,8.8,0,0,0,.9,2,3.9,3.9,0,0,1-1.2-1.9h0V85A3.7,3.7,0,0,1,1227,83.2Z"/><path class="b" d="M1244.8,52.7l-1-.3a8.2,8.2,0,0,1-3.8,4.8h1v.2h.3a7.5,7.5,0,0,1-3.1,1.8c1.3-.4,2.8-.8,3.6-2h-.2l.3-.5h-.1A8,8,0,0,0,1244.8,52.7Z"/><path class="b" d="M1185.8,57.1c1.3.8,2.1,2.4,3.4,3.1h-.4c.6.4.8,1.3,1.3,1.7s-.8-.4-1.1-.5c1.1,1.8,3,2.5,5,3a9.3,9.3,0,0,1-4.4,0c1.8-.1-.1-.6-.8-.4s-1.5-.6-2-1A4.1,4.1,0,0,0,1185.8,57.1Z"/><path class="b" d="M1180.9,51.1c.4.2,2.3,1,3.1,0s.2-2.3,0-3.1.5,2,.8,1.6c.1,1.1,1.3,1.8,2.3,2.2s-.2.1-.2.1-1.3.7-2,.7c1.1-.5-1.4,0-1.7-.2S1182,52,1180.9,51.1Z"/><path class="b" d="M1243.5,43.1a4.9,4.9,0,0,0,1.8-2.2c-1.2,1.2-2.8,1.8-3.7,3.4l1.3-.3-2.2,1.8a5.8,5.8,0,0,0,3.9-3.1Z"/><path class="b" d="M1205.6,33.7a9.1,9.1,0,0,0-7.2-4.3,14.3,14.3,0,0,1,3.2,2.8,8.4,8.4,0,0,0-2.7-.4,32.5,32.5,0,0,1,2.3,2.9l-1-.3a8,8,0,0,1,1.9,3.2,7.5,7.5,0,0,0-.8-2.4l.9.4a12.2,12.2,0,0,0-1.7-2.9,14.5,14.5,0,0,1,2.9,1.1,11.8,11.8,0,0,0-2.3-3.2A10.1,10.1,0,0,1,1205.6,33.7Z"/><path class="b" d="M1227.7,21.8a11.8,11.8,0,0,1,2.7-3.2l1.3-1.1-.8,1.5a.7.7,0,0,0-.1.6l-.6-.2a24.8,24.8,0,0,1,6.7-4.3c-2.1,1.7-4.2,3.2-6.2,4.9l-.4.3-.2-.5a1.4,1.4,0,0,1,.2-1.1l.5.4A26.1,26.1,0,0,0,1227.7,21.8Z"/><path class="b" d="M1206,27.3a5.6,5.6,0,0,0-3.7-4.6,9,9,0,0,1,2.7,3.5l-.9-.2a5.4,5.4,0,0,1,1.3,3.5,3.9,3.9,0,0,0,.1-2.4Z"/><path class="b" d="M1224.7,20.7c-.8.9-.6,1.8-1.2,2.7s-.1-.9-.5-.7.2,3.5-1.7,4.4c1.4-1.8-.5-3.5.6-5.6.4.9,1.8.5,1.7-.9.2.9,1.2-.9,1.4-1.3A3.2,3.2,0,0,1,1224.7,20.7Z"/><path class="b" d="M1233.7,128.3c-1.1,2.2-2.2,4.3-3.2,6.5s-1.8,4.5-2.5,6.8a66,66,0,0,0-3.1,14l-1.7-.8,2.9-3.3,2.4-2.7-.7,3.6c-.4,2.2-.7,4.4-.9,6.7s-.1,4.5,0,6.7a49,49,0,0,0,.7,6.7c.4,2.3.9,4.5,1.5,6.7H1228l.4-1.6.5-2.1.5,2.1a47.5,47.5,0,0,0,1.7,4.9,29.2,29.2,0,0,0,2.3,4.7,29.8,29.8,0,0,1-5-9.3h1l-.2,1.7-.4,2.1-.8-2.1a50.2,50.2,0,0,1-2-6.6,53.6,53.6,0,0,1-1-7,40.9,40.9,0,0,1,0-7,40.8,40.8,0,0,1,.9-6.9l1.7.8-2.9,3.3-2.1,2.3.4-3.1a59.5,59.5,0,0,1,3.7-14.2,49.8,49.8,0,0,1,3.1-6.6C1231,132.4,1232.3,130.3,1233.7,128.3Z"/><path class="b" d="M1191,20.9a26.6,26.6,0,0,1,4.7,1.1c-2.4-1.5-5.4-2-8.2-2.3a17.3,17.3,0,0,1,2.8,1.9c-3.4-1.1-7.2-1.6-10.7-.4h1.7c3.9-.2,7.6,1.1,11.3,2.3A9.6,9.6,0,0,0,1191,20.9Z"/></svg>